<svg xmlns="http://www.w3.org/2000/svg" width="160" height="16" shape-rendering="crispEdges">
  <g fill="#ffffff">
    <rect x="0" y="11" width="160" height="5"/>
    <rect x="1" y="9" width="19" height="2"/>
    <rect x="4" y="7" width="12" height="2"/>
    <rect x="7" y="6" width="6" height="1"/>
    <rect x="24" y="9" width="14" height="2"/>
    <rect x="28" y="8" width="7" height="1"/>
    <rect x="43" y="9" width="20" height="2"/>
    <rect x="47" y="7" width="12" height="2"/>
    <rect x="51" y="6" width="5" height="1"/>
    <rect x="68" y="10" width="16" height="1"/>
    <rect x="72" y="9" width="8" height="1"/>
    <rect x="88" y="9" width="22" height="2"/>
    <rect x="93" y="7" width="13" height="2"/>
    <rect x="97" y="5" width="6" height="2"/>
    <rect x="115" y="10" width="12" height="1"/>
    <rect x="131" y="9" width="18" height="2"/>
    <rect x="135" y="7" width="10" height="2"/>
    <rect x="138" y="6" width="5" height="1"/>
    <rect x="152" y="10" width="8" height="1"/>
  </g>
  <g fill="#dfe8f2">
    <rect x="0" y="14" width="160" height="2"/>
  </g>
</svg>
